<svg id="Layer_1" data-name="Layer 1" xmlns="http://www.w3.org/2000/svg" xmlns:xlink="http://www.w3.org/1999/xlink" viewBox="0 0 1080 1080"><defs><style>.cls-1{fill:#fff;}.cls-2{fill:#231f20;}.cls-3{fill:url(#linear-gradient);}.cls-4{fill:url(#linear-gradient-2);}.cls-5{fill:url(#linear-gradient-3);}.cls-6{fill:url(#linear-gradient-4);}.cls-7{fill:url(#linear-gradient-5);}.cls-8{fill:url(#linear-gradient-6);}.cls-9{fill:url(#linear-gradient-7);}.cls-10{fill:url(#linear-gradient-8);}.cls-11{fill:url(#linear-gradient-9);}.cls-12{fill:url(#linear-gradient-10);}.cls-13{fill:url(#linear-gradient-11);}.cls-14{fill:url(#linear-gradient-12);}.cls-15{fill:url(#linear-gradient-13);}.cls-16{fill:url(#linear-gradient-14);}.cls-17{fill:url(#linear-gradient-15);}</style><linearGradient id="linear-gradient" x1="1104.08" y1="972.7" x2="-129.96" y2="26.55" gradientUnits="userSpaceOnUse"><stop offset="0" stop-color="#a2def9"/><stop offset="0.09" stop-color="#8bcaea"/><stop offset="0.31" stop-color="#59a0cb"/><stop offset="0.52" stop-color="#337fb2"/><stop offset="0.71" stop-color="#1767a1"/><stop offset="0.88" stop-color="#065996"/><stop offset="1" stop-color="#005492"/></linearGradient><linearGradient id="linear-gradient-2" x1="538.59" y1="979.97" x2="541.21" y2="749.65" gradientUnits="userSpaceOnUse"><stop offset="0" stop-color="#dcf2fd"/><stop offset="0.06" stop-color="#c7e9f9"/><stop offset="0.25" stop-color="#8bd0ed"/><stop offset="0.43" stop-color="#5abbe2"/><stop offset="0.6" stop-color="#33aada"/><stop offset="0.76" stop-color="#179fd5"/><stop offset="0.9" stop-color="#0698d1"/><stop offset="1" stop-color="#0095d0"/></linearGradient><linearGradient id="linear-gradient-3" x1="178.51" y1="-200.89" x2="1237.2" y2="696.84" xlink:href="#linear-gradient-2"/><linearGradient id="linear-gradient-4" x1="-104.56" y1="132.94" x2="954.13" y2="1030.67" xlink:href="#linear-gradient-2"/><linearGradient id="linear-gradient-5" x1="33.09" y1="-29.39" x2="1091.78" y2="868.34" xlink:href="#linear-gradient-2"/><linearGradient id="linear-gradient-6" x1="67.07" y1="-69.46" x2="1125.76" y2="828.27" xlink:href="#linear-gradient-2"/><linearGradient id="linear-gradient-7" x1="164.47" y1="-184.33" x2="1223.16" y2="713.4" xlink:href="#linear-gradient-2"/><linearGradient id="linear-gradient-8" x1="-235.96" y1="287.91" x2="822.73" y2="1185.63" xlink:href="#linear-gradient-2"/><linearGradient id="linear-gradient-9" x1="155.05" y1="-173.22" x2="1213.74" y2="724.51" gradientUnits="userSpaceOnUse"><stop offset="0" stop-color="#dcf2fd"/><stop offset="0.06" stop-color="#c7eafa"/><stop offset="0.25" stop-color="#8bd4f0"/><stop offset="0.43" stop-color="#5ac2e8"/><stop offset="0.6" stop-color="#33b4e1"/><stop offset="0.76" stop-color="#17a9dd"/><stop offset="0.9" stop-color="#06a3da"/><stop offset="1" stop-color="#00a1d9"/></linearGradient><linearGradient id="linear-gradient-10" x1="-197.53" y1="242.58" x2="861.16" y2="1140.31" xlink:href="#linear-gradient-2"/><linearGradient id="linear-gradient-11" x1="126.04" y1="-139.01" x2="1184.73" y2="758.72" xlink:href="#linear-gradient-2"/><linearGradient id="linear-gradient-12" x1="-15.21" y1="27.57" x2="1043.48" y2="925.3" xlink:href="#linear-gradient-2"/><linearGradient id="linear-gradient-13" x1="213.59" y1="-242.26" x2="1272.28" y2="655.47" xlink:href="#linear-gradient-2"/><linearGradient id="linear-gradient-14" x1="-285.09" y1="345.84" x2="773.6" y2="1243.56" xlink:href="#linear-gradient-2"/><linearGradient id="linear-gradient-15" x1="-56.27" y1="75.99" x2="1002.42" y2="973.72" xlink:href="#linear-gradient-2"/></defs><title>E-cell logo</title><path class="cls-1" d="M586.43,709.68c.78,9,1.53,17.72,2.31,26.79H497.16c.74-8.88,1.48-17.66,2.24-26.79Z"/><path class="cls-1" d="M549,778.65c-6.89,3-13.07,6-19.43,8.46-6.88,2.7-14,4.37-21.46,2.48a48.69,48.69,0,0,1-14.89-7.06c.48-5.63,1-11.3,1.46-16.88,3.55-1,89.21-1.4,96.51-.41.56,6.47,1.12,13.06,1.71,19.81C576.51,793,562.25,789.11,549,778.65Z"/><path class="cls-1" d="M504.14,655.07h77.52c.77,8.68,1.53,17.18,2.32,26.1H501.93C502.66,672.5,503.39,663.91,504.14,655.07Z"/><path class="cls-1" d="M577,600.43c.77,8.85,1.51,17.36,2.29,26.25H506.67c.73-8.69,1.45-17.29,2.2-26.25Z"/><path class="cls-1" d="M688.71,584.65c-20.33.7-32.34,11.09-37.54,30.27-7.95-3.65-15.48-6.44-23.71-2.64-7.59,3.5-13.32,9-18.4,16.61,1-9.82,5-16.93,11.87-22.49s14.73-7.22,23.55-5.72c6-10.4,14.4-17.5,26.4-19.39C676.92,580.34,682.83,580.89,688.71,584.65Z"/><path class="cls-1" d="M476.12,530.32c-.41-.15-.95-.19-1.23-.47-8.74-8.79-18.86-10.35-30.17-5.82-.56.23-1.17.33-2.23.63-1.61-5.7-3.91-10.87-9.68-13.39a27,27,0,0,0-16.52-2.12c8.36-7.12,21.83-3.91,30.19,7,12.68-1.44,24.09.26,29.55,14.21Z"/><path class="cls-2" d="M374.69,805.81,371.8,805l0,0,2.86.9Z"/><path class="cls-2" d="M711.22,829.81l2-.87-.1-.09-1.94.87Z"/><path class="cls-2" d="M713.05,801.06l.26-.17L713,801Z"/><path class="cls-2" d="M476,530.4l.14.23c0,.25,0,0-.05-.31Z"/><path class="cls-2" d="M713.19,828.94l.1-.32-.2.23Z"/><polygon class="cls-2" points="371.8 804.95 371.64 804.81 371.77 805 371.8 804.95"/><path class="cls-3" d="M634.46,787.9c-2.46-40.13,10.14-73.21,38-100,31.63-30.37,52.65-66.21,62.12-109.28,23.86-108.58-57.88-221.44-167.54-235.43-102.63-13.09-201.89,56.14-221.5,158.49-13,68,5.45,127.68,53.55,177.2,22.07,22.71,40.36,46.68,45.15,78.73,1.4,9.36,1.39,18.92,2.16,30.39-27.8-13.07-53.42-8.3-80.19-1.08-41.58,11.2-83.21-33.41-72.72-75.26,3.66-14.59,7.9-29.82,7.26-44.56-1.46-33.54-21.22-55.68-50.25-70.72C214.92,578,204.31,534,228.23,502.12c5.5-7.32,13.72-13.43,21.91-17.77,44.36-23.55,60.48-61.25,45.17-109.12-8-25-2.56-46.71,15.59-64.66s39.8-23.09,64.8-15c47.05,15.22,84.89-.8,107.73-45.09,12-23.23,30.85-34.52,56.71-34.49s44.63,11.57,56.55,34.77c22.67,44.09,60.54,59.89,107.93,44.68,25-8,46.54-2.63,64.71,15.32s23.33,39.93,15.37,64.71c-15,46.76.3,84.77,43.75,107.1,23.67,12.17,35.82,31,35.75,57.39s-12.24,45.22-36,57.3c-42.52,21.67-58.09,60-43.83,106.07,13.66,44.09-17.36,86.61-61.94,84.81a35.91,35.91,0,0,1-10.22-1.68C686.45,777.48,660.71,774.77,634.46,787.9Z"/><path class="cls-4" d="M446,822.83H633.85c0,29.48.74,58.48-.39,87.4-.41,10.52-8.93,16.42-20.07,16.47-13.44.06-26.89,0-40.14,0-7.09,23.39-17.19,32.2-35.44,31.36-15.76-.72-25.65-10.7-30.32-31.36-13.63,0-27.5.22-41.35-.07-11.69-.24-19.56-6.67-19.88-18.13C445.47,880.35,446,852.15,446,822.83Z"/><path class="cls-5" d="M715,217.84c.2,23.88-17.91,42.31-41.69,42.42-24,.1-42.13-17.9-42.11-41.89a41.46,41.46,0,0,1,41-41.89C696,176.12,714.82,194.29,715,217.84Z"/><path class="cls-6" d="M260.26,406.67c.09,24-18,42.11-41.94,42.07a41.46,41.46,0,0,1-41.84-41c-.34-23.81,17.86-42.61,41.41-42.79C241.77,364.75,260.17,382.88,260.26,406.67Z"/><path class="cls-7" d="M862.12,631.21c23.62.21,41.75,19,41.35,42.8a41.49,41.49,0,0,1-41.88,41c-23.8,0-42-18.31-41.89-42.22S838.07,631,862.12,631.21Z"/><path class="cls-8" d="M406.22,260.26c-24-.14-41.52-18.2-41.28-42.55.23-23.89,18.44-41.29,42.87-41,23.26.32,40.67,18.27,40.63,41.89C448.4,242.75,430.49,260.4,406.22,260.26Z"/><path class="cls-9" d="M862.29,364.93c23.84.25,41.26,18.52,40.91,42.92-.34,23.69-18.83,41-43.24,40.59-23.14-.44-40.41-18.57-40.26-42.27C819.85,382.21,837.94,364.68,862.29,364.93Z"/><path class="cls-10" d="M218.24,715c-24.05-.08-41.66-18-41.48-42.34.17-23.95,18.31-41.44,42.67-41.16,23.34.26,40.81,18.11,40.83,41.69C260.28,697.41,242.5,715.1,218.24,715Z"/><path class="cls-11" d="M540.48,121.87c17.68.18,30.95,13.72,30.84,31.47-.11,18.26-14,31.56-32.49,31.12-17.57-.41-30.44-14.13-30.14-32.11C509,134.71,522.56,121.69,540.48,121.87Z"/><path class="cls-12" d="M152.7,571.27c-17.69-.16-30.87-13.61-30.82-31.43.05-18.28,13.89-31.58,32.41-31.16,17.55.41,30.55,14.21,30.2,32.09C184.16,558.43,170.6,571.44,152.7,571.27Z"/><path class="cls-13" d="M927.64,508.68c17.59.31,30.72,14,30.48,31.82-.24,18.2-14.26,31.34-32.83,30.77-17.46-.54-30.23-14.44-29.79-32.46C895.92,521.25,909.65,508.37,927.64,508.68Z"/><path class="cls-14" d="M298,266.65A31.41,31.41,0,0,1,266.52,298c-17.41,0-31.72-14-31.92-31.18-.2-17.59,14.76-32.48,32.33-32.2A31.86,31.86,0,0,1,298,266.65Z"/><path class="cls-15" d="M814,298a31.21,31.21,0,0,1-32-30.73,31.85,31.85,0,0,1,30.46-32.61c17.42-.68,32.7,14,32.9,31.61C845.54,283.35,831.41,297.64,814,298Z"/><path class="cls-16" d="M266.2,782A31.3,31.3,0,0,1,298,813a31.85,31.85,0,0,1-30.7,32.39c-17.43.53-32.64-14.29-32.67-31.85C234.57,796.35,248.78,782.19,266.2,782Z"/><path class="cls-17" d="M782,813.55A31.38,31.38,0,0,1,813.16,782a31.85,31.85,0,0,1,32.19,30.92c.38,17.53-14.49,32.58-32.07,32.46C796.12,845.24,782.07,831,782,813.55Z"/><path class="cls-1" d="M588.07,475.93c-12.87-9.65-25.7-19.35-38.67-28.88-2.45-1.8-3.61-3.7-3.46-6.74.2-3.94,0-7.9,0-11.55-4.5-2-5.84-1.41-6.08,2.28a58.64,58.64,0,0,0,0,8.59c.29,3.36-.88,5.54-3.66,7.58C522.91,457,509.72,467,496.48,477c-1.23.92-2.39,1.92-4.48,3.61h11.2c.22,4,.41,7.54.6,11.13l7,.67v38.7l-6.93.71v17.65l9.28.91h59.54v-.11l9.29-.85V531.77l-6.67-.68c-1.13-6.34-.83-35.37.4-38.9l6.36-.42c.19-3.76.38-7.31.59-11.36h10.11A20.71,20.71,0,0,0,588.07,475.93ZM565.8,531.11H553.21c-.16-1.6-.44-3.26-.47-4.92-.1-5.24.08-10.51-.21-15.74a9,9,0,0,0-7.71-8.5c-4.32-.78-8.68,1.1-10.47,4.9a14.73,14.73,0,0,0-1.15,5.52c-.16,4.45,0,8.91-.08,13.36,0,1.71-.19,3.42-.32,5.41H520.71c-1.15-3.36-1.48-32-.4-38.74H565.8Z"/><path class="cls-1" d="M513,552.49c-.52,6.78-1,13.17-1.5,19.64h62.87c-.52-6.8-1-13.17-1.5-19.64Z"/></svg>