<svg width="75" height="75" viewBox="0 0 75 75" fill="none" xmlns="http://www.w3.org/2000/svg">
<path d="M40.7242 49.2833C40.7784 49.9083 40.8305 50.5139 40.8847 51.1437H34.525C34.5764 50.5271 34.6277 49.9174 34.6805 49.2833H40.7242Z" fill="white"/>
<path d="M38.125 54.0729C37.6465 54.2813 37.2174 54.4896 36.7757 54.6604C36.2979 54.848 35.8035 54.9639 35.2854 54.8327C34.9154 54.7292 34.5657 54.5634 34.2514 54.3424C34.2847 53.9514 34.3208 53.5577 34.3528 53.1701C34.5993 53.1007 40.5479 53.0729 41.0549 53.1417C41.0937 53.591 41.1326 54.0486 41.1736 54.5174C40.0354 55.0695 39.0451 54.7993 38.125 54.0729Z" fill="white"/>
<path d="M35.0097 45.491H40.3931C40.4465 46.0937 40.4993 46.684 40.5542 47.3035H34.8563C34.907 46.7014 34.9577 46.1049 35.0097 45.491Z" fill="white"/>
<path d="M40.0695 41.6965C40.1229 42.3111 40.1743 42.9021 40.2285 43.5195H35.1854C35.2361 42.916 35.2861 42.3188 35.3382 41.6965H40.0695Z" fill="white"/>
<path d="M47.8271 40.6007C46.4153 40.6493 45.5813 41.3708 45.2201 42.7028C44.6681 42.4493 44.1451 42.2556 43.5736 42.5194C43.0465 42.7625 42.6486 43.1444 42.2958 43.6729C42.3653 42.991 42.6431 42.4972 43.1201 42.1111C43.5972 41.725 44.1431 41.6097 44.7556 41.7139C45.1722 40.9917 45.7556 40.4986 46.5889 40.3674C47.0083 40.3014 47.4188 40.3396 47.8271 40.6007Z" fill="white"/>
<path d="M33.0639 36.8278C33.0354 36.8174 32.9979 36.8146 32.9784 36.7952C32.3715 36.1848 31.6687 36.0764 30.8833 36.391C30.8444 36.407 30.802 36.4139 30.7284 36.4348C30.6166 36.0389 30.4569 35.6799 30.0562 35.5049C29.6989 35.3361 29.2974 35.2846 28.909 35.3577C29.4896 34.8632 30.425 35.0861 31.0055 35.8438C31.8861 35.7438 32.6784 35.8618 33.0576 36.8306L33.0639 36.8278Z" fill="white"/>
<path d="M26.0202 55.9584L25.8195 55.9028L26.0181 55.9646L26.0202 55.9584Z" fill="#231F20"/>
<path d="M49.3903 57.625L49.5292 57.5652L49.5222 57.559L49.3875 57.6188L49.3903 57.625Z" fill="#231F20"/>
<path d="M49.5175 55.6287L49.5359 55.6174L49.5139 55.6247L49.5175 55.6287Z" fill="#231F20"/>
<path d="M33.0555 36.8332L33.0655 36.8488C33.0655 36.8658 33.0655 36.8488 33.0619 36.8278L33.0555 36.8332Z" fill="#231F20"/>
<path d="M49.5272 57.5645L49.5343 57.543L49.5201 57.5585L49.5272 57.5645Z" fill="#231F20"/>
<path d="M25.8197 55.8987L25.8083 55.8895L25.8176 55.902L25.8197 55.8987Z" fill="#231F20"/>
<path d="M44.0597 54.7153C43.8889 51.9285 44.7639 49.6313 46.6986 47.7709C48.8951 45.6618 50.3549 43.1729 51.0125 40.182C52.6694 32.6417 46.993 24.8042 39.3778 23.8327C32.2507 22.9236 25.3576 27.7313 23.9958 34.8389C23.093 39.5611 24.3743 43.7056 27.7146 47.1445C29.2472 48.7216 30.5174 50.3861 30.85 52.6118C30.9472 53.2618 30.9465 53.9257 31 54.7222C29.0694 53.8146 27.2903 54.1459 25.4312 54.6472C22.5437 55.425 19.6528 52.3271 20.3812 49.4209C20.6354 48.4077 20.9299 47.35 20.8854 46.3264C20.784 43.9972 19.4118 42.4597 17.3958 41.4153C14.925 40.1389 14.1882 37.0834 15.8493 34.8695C16.2312 34.3611 16.8021 33.9368 17.3708 33.6354C20.4514 32 21.5708 29.382 20.5076 26.0577C19.9521 24.3216 20.3299 22.8139 21.5903 21.5674C22.8507 20.3209 24.3542 19.9639 26.0903 20.5257C29.3576 21.5827 31.9854 20.4702 33.5715 17.3945C34.4049 15.7813 35.7139 14.9972 37.5097 14.9993C39.3055 15.0014 40.609 15.8028 41.4368 17.4139C43.0111 20.4757 45.641 21.5729 48.9319 20.5167C50.668 19.9611 52.1639 20.3341 53.4257 21.5806C54.6875 22.8271 55.0458 24.3535 54.4931 26.0743C53.4514 29.3216 54.5139 31.9611 57.5312 33.5118C59.175 34.357 60.0187 35.6646 60.0139 37.4972C60.009 39.3299 59.1639 40.6375 57.5139 41.4764C54.5611 42.9813 53.4799 45.6431 54.4701 48.8424C55.4187 51.9042 53.2646 54.857 50.1687 54.732C49.9278 54.7276 49.6887 54.6883 49.459 54.6153C47.6701 53.9917 45.8826 53.8035 44.0597 54.7153Z" fill="url(#paint0_linear_12_2)"/>
<path d="M30.9722 57.141H44.0173C44.0173 59.1882 44.0687 61.2021 43.9902 63.2104C43.9617 63.941 43.3701 64.3507 42.5964 64.3542C41.6631 64.3583 40.7291 64.3542 39.809 64.3542C39.3166 65.9785 38.6152 66.5903 37.3478 66.532C36.2534 66.482 35.5666 65.7889 35.2423 64.3542C34.2958 64.3542 33.3326 64.3695 32.3708 64.3493C31.559 64.3326 31.0124 63.8861 30.9902 63.0903C30.9354 61.1354 30.9722 59.1771 30.9722 57.141Z" fill="url(#paint1_linear_12_2)"/>
<path d="M49.6527 15.1278C49.6666 16.7861 48.409 18.066 46.7576 18.0736C45.0909 18.0806 43.8319 16.8306 43.8333 15.1646C43.8253 14.4013 44.1208 13.6661 44.6547 13.1206C45.1886 12.5751 45.9173 12.264 46.6805 12.2556C48.3333 12.2306 49.6402 13.4924 49.6527 15.1278Z" fill="url(#paint2_linear_12_2)"/>
<path d="M18.0736 28.241C18.0799 29.9077 16.8236 31.1653 15.1611 31.1625C14.3985 31.1696 13.6642 30.8737 13.1194 30.3399C12.5747 29.8061 12.264 29.078 12.2556 28.3153C12.232 26.6619 13.4959 25.3563 15.1313 25.3438C16.7896 25.3299 18.0674 26.5889 18.0736 28.241Z" fill="url(#paint3_linear_12_2)"/>
<path d="M59.8695 43.8341C61.5097 43.8486 62.7688 45.1535 62.741 46.8063C62.732 47.5692 62.4208 48.2975 61.8755 48.8312C61.3303 49.365 60.5956 49.6607 59.8327 49.6535C58.1799 49.6535 56.916 48.3819 56.9236 46.7215C56.9313 45.0611 58.1993 43.8195 59.8695 43.8341Z" fill="url(#paint4_linear_12_2)"/>
<path d="M28.2097 18.0736C26.5431 18.0639 25.3264 16.8097 25.3431 15.1188C25.359 13.4597 26.6236 12.2514 28.3201 12.2715C29.9354 12.2938 31.1444 13.5403 31.1417 15.1806C31.1389 16.8577 29.8951 18.0834 28.2097 18.0736Z" fill="url(#paint5_linear_12_2)"/>
<path d="M59.8812 25.3423C61.5368 25.3597 62.7465 26.6285 62.7222 28.3229C62.6986 29.968 61.4146 31.1701 59.7194 31.1417C58.1125 31.1111 56.9132 29.8521 56.9236 28.2062C56.934 26.5423 58.1903 25.325 59.8812 25.3423Z" fill="url(#paint6_linear_12_2)"/>
<path d="M15.1556 49.6528C13.4854 49.6472 12.2625 48.4028 12.275 46.7125C12.2868 45.0493 13.5465 43.8347 15.2382 43.8542C16.859 43.8722 18.0722 45.1118 18.0736 46.7493C18.075 48.4313 16.8403 49.6597 15.1556 49.6528Z" fill="url(#paint7_linear_12_2)"/>
<path d="M37.5334 8.4632C38.7612 8.4757 39.6827 9.41598 39.675 10.6486C39.6674 11.9167 38.7028 12.8403 37.4188 12.8097C36.1987 12.7813 35.3049 11.8285 35.3257 10.5799C35.3473 9.35487 36.2889 8.4507 37.5334 8.4632Z" fill="url(#paint8_linear_12_2)"/>
<path d="M10.6042 39.6715C9.37568 39.6604 8.4604 38.7263 8.46388 37.4888C8.46735 36.2194 9.42846 35.2958 10.7146 35.325C11.9333 35.3534 12.8361 36.3118 12.8118 37.5534C12.7889 38.7798 11.8472 39.6833 10.6042 39.6715Z" fill="url(#paint9_linear_12_2)"/>
<path d="M64.4194 35.325C65.6409 35.3465 66.5527 36.2972 66.5361 37.5347C66.5194 38.7986 65.5458 39.7111 64.2562 39.6715C63.0437 39.634 62.1569 38.6687 62.1875 37.4173C62.2166 36.1979 63.1701 35.3034 64.4194 35.325Z" fill="url(#paint10_linear_12_2)"/>
<path d="M20.6945 18.5174C20.6939 18.8039 20.637 19.0875 20.5268 19.352C20.4166 19.6164 20.2554 19.8566 20.0524 20.0588C19.8494 20.261 19.6086 20.4212 19.3436 20.5302C19.0787 20.6393 18.7949 20.6951 18.5084 20.6945C17.2993 20.6945 16.3056 19.7222 16.2917 18.5292C16.2778 17.3076 17.3167 16.2736 18.5368 16.2931C19.1161 16.3074 19.6667 16.5485 20.0701 16.9644C20.4736 17.3803 20.6978 17.9379 20.6945 18.5174V18.5174Z" fill="url(#paint11_linear_12_2)"/>
<path d="M56.5278 20.6944C56.2414 20.7017 55.9564 20.6521 55.6892 20.5486C55.4221 20.445 55.1782 20.2895 54.9715 20.091C54.7648 19.8926 54.5996 19.6551 54.4853 19.3924C54.371 19.1297 54.3099 18.8469 54.3056 18.5604C54.2912 17.9811 54.5048 17.4193 54.9004 16.9958C55.2959 16.5723 55.8419 16.3209 56.4209 16.2958C57.6306 16.2486 58.6917 17.268 58.7056 18.491C58.7181 19.6771 57.7368 20.6694 56.5278 20.6944Z" fill="url(#paint12_linear_12_2)"/>
<path d="M18.4861 54.3056C18.7727 54.301 19.0574 54.3531 19.3238 54.459C19.5902 54.5649 19.833 54.7224 20.0382 54.9225C20.2435 55.1226 20.4071 55.3613 20.5198 55.6249C20.6324 55.8885 20.6918 56.1717 20.6945 56.4584C20.7047 57.0378 20.487 57.5982 20.0883 58.0188C19.6896 58.4395 19.1417 58.6868 18.5625 58.7077C17.3521 58.7445 16.2959 57.7153 16.2938 56.4958C16.2896 55.3021 17.2764 54.3188 18.4861 54.3056Z" fill="url(#paint13_linear_12_2)"/>
<path d="M54.3055 56.4965C54.3024 55.9192 54.5285 55.3642 54.9342 54.9534C55.3399 54.5426 55.8921 54.3096 56.4694 54.3056C57.0491 54.2991 57.6081 54.5205 58.0262 54.9221C58.4442 55.3237 58.6879 55.8733 58.7048 56.4528C58.7312 57.6701 57.6986 58.7153 56.4777 58.7069C55.2861 58.6972 54.3104 57.7083 54.3055 56.4965Z" fill="url(#paint14_linear_12_2)"/>
<path d="M40.8382 33.0507C39.9445 32.3805 39.0535 31.7069 38.1528 31.0451C37.9827 30.9201 37.9021 30.7882 37.9125 30.5771C37.9264 30.3035 37.9125 30.0285 37.9125 29.775C37.6 29.6361 37.507 29.6771 37.4903 29.9333C37.4757 30.1319 37.4757 30.3313 37.4903 30.5298C37.5104 30.7632 37.4292 30.9146 37.2361 31.0562C36.3132 31.7361 35.3972 32.4305 34.4778 33.125C34.3924 33.1889 34.3118 33.2583 34.1667 33.3757H34.9445C34.9597 33.6535 34.9729 33.8993 34.9861 34.1486L35.4722 34.1951V36.8826L34.991 36.9319V38.1576L35.6354 38.2208H39.7702V38.2132L40.4153 38.1541V36.9285L39.9521 36.8812C39.8736 36.441 39.8945 34.425 39.9799 34.1798L40.4215 34.1507C40.4347 33.8896 40.4479 33.643 40.4625 33.3618H41.1646C41.0728 33.2416 40.9627 33.1366 40.8382 33.0507V33.0507ZM39.2917 36.8826H38.4174C38.4063 36.7715 38.3868 36.6562 38.3847 36.541C38.3778 36.1771 38.3903 35.8111 38.3702 35.4479C38.3636 35.3026 38.3065 35.1641 38.2087 35.0564C38.111 34.9486 37.9787 34.8783 37.8347 34.8576C37.5347 34.8035 37.232 34.934 37.1077 35.1979C37.0566 35.3193 37.0295 35.4495 37.0278 35.5812C37.0167 35.8903 37.0278 36.2 37.0222 36.509C37.0222 36.6278 37.009 36.7465 37 36.8847H36.1604C36.0806 36.6514 36.0577 34.6625 36.1327 34.1944H39.2917V36.8826Z" fill="white"/>
<path d="M35.625 38.3674C35.5889 38.8382 35.5555 39.282 35.5208 39.7313H39.8868C39.8507 39.259 39.8173 38.8167 39.7826 38.3674H35.625Z" fill="white"/>
<defs>
<linearGradient id="paint0_linear_12_2" x1="76.6722" y1="67.5486" x2="-9.025" y2="1.84375" gradientUnits="userSpaceOnUse">
<stop stop-color="#A2DEF9"/>
<stop offset="0.09" stop-color="#8BCAEA"/>
<stop offset="0.31" stop-color="#59A0CB"/>
<stop offset="0.52" stop-color="#337FB2"/>
<stop offset="0.71" stop-color="#1767A1"/>
<stop offset="0.88" stop-color="#065996"/>
<stop offset="1" stop-color="#005492"/>
</linearGradient>
<linearGradient id="paint1_linear_12_2" x1="37.402" y1="68.0535" x2="37.584" y2="52.0591" gradientUnits="userSpaceOnUse">
<stop stop-color="#DCF2FD"/>
<stop offset="0.06" stop-color="#C7E9F9"/>
<stop offset="0.25" stop-color="#8BD0ED"/>
<stop offset="0.43" stop-color="#5ABBE2"/>
<stop offset="0.6" stop-color="#33AADA"/>
<stop offset="0.76" stop-color="#179FD5"/>
<stop offset="0.9" stop-color="#0698D1"/>
<stop offset="1" stop-color="#0095D0"/>
</linearGradient>
<linearGradient id="paint2_linear_12_2" x1="1082.71" y1="-1156.61" x2="7242.87" y2="4068.1" gradientUnits="userSpaceOnUse">
<stop stop-color="#DCF2FD"/>
<stop offset="0.06" stop-color="#C7E9F9"/>
<stop offset="0.25" stop-color="#8BD0ED"/>
<stop offset="0.43" stop-color="#5ABBE2"/>
<stop offset="0.6" stop-color="#33AADA"/>
<stop offset="0.76" stop-color="#179FD5"/>
<stop offset="0.9" stop-color="#0698D1"/>
<stop offset="1" stop-color="#0095D0"/>
</linearGradient>
<linearGradient id="paint3_linear_12_2" x1="-596.117" y1="798.918" x2="5564.27" y2="6022.19" gradientUnits="userSpaceOnUse">
<stop stop-color="#DCF2FD"/>
<stop offset="0.06" stop-color="#C7E9F9"/>
<stop offset="0.25" stop-color="#8BD0ED"/>
<stop offset="0.43" stop-color="#5ABBE2"/>
<stop offset="0.6" stop-color="#33AADA"/>
<stop offset="0.76" stop-color="#179FD5"/>
<stop offset="0.9" stop-color="#0698D1"/>
<stop offset="1" stop-color="#0095D0"/>
</linearGradient>
<linearGradient id="paint4_linear_12_2" x1="249.436" y1="-127.206" x2="6410.35" y2="5095.39" gradientUnits="userSpaceOnUse">
<stop stop-color="#DCF2FD"/>
<stop offset="0.06" stop-color="#C7E9F9"/>
<stop offset="0.25" stop-color="#8BD0ED"/>
<stop offset="0.43" stop-color="#5ABBE2"/>
<stop offset="0.6" stop-color="#33AADA"/>
<stop offset="0.76" stop-color="#179FD5"/>
<stop offset="0.9" stop-color="#0698D1"/>
<stop offset="1" stop-color="#0095D0"/>
</linearGradient>
<linearGradient id="paint5_linear_12_2" x1="414.267" y1="-390.762" x2="6556.57" y2="4814.45" gradientUnits="userSpaceOnUse">
<stop stop-color="#DCF2FD"/>
<stop offset="0.06" stop-color="#C7E9F9"/>
<stop offset="0.25" stop-color="#8BD0ED"/>
<stop offset="0.43" stop-color="#5ABBE2"/>
<stop offset="0.6" stop-color="#33AADA"/>
<stop offset="0.76" stop-color="#179FD5"/>
<stop offset="0.9" stop-color="#0698D1"/>
<stop offset="1" stop-color="#0095D0"/>
</linearGradient>
<linearGradient id="paint6_linear_12_2" x1="1010.69" y1="-1043.77" x2="7150.91" y2="4162.05" gradientUnits="userSpaceOnUse">
<stop stop-color="#DCF2FD"/>
<stop offset="0.06" stop-color="#C7E9F9"/>
<stop offset="0.25" stop-color="#8BD0ED"/>
<stop offset="0.43" stop-color="#5ABBE2"/>
<stop offset="0.6" stop-color="#33AADA"/>
<stop offset="0.76" stop-color="#179FD5"/>
<stop offset="0.9" stop-color="#0698D1"/>
<stop offset="1" stop-color="#0095D0"/>
</linearGradient>
<linearGradient id="paint7_linear_12_2" x1="-1355.99" y1="1713.41" x2="4783.2" y2="6919" gradientUnits="userSpaceOnUse">
<stop stop-color="#DCF2FD"/>
<stop offset="0.06" stop-color="#C7E9F9"/>
<stop offset="0.25" stop-color="#8BD0ED"/>
<stop offset="0.43" stop-color="#5ABBE2"/>
<stop offset="0.6" stop-color="#33AADA"/>
<stop offset="0.76" stop-color="#179FD5"/>
<stop offset="0.9" stop-color="#0698D1"/>
<stop offset="1" stop-color="#0095D0"/>
</linearGradient>
<linearGradient id="paint8_linear_12_2" x1="10.7674" y1="-12.0292" x2="84.2875" y2="50.3133" gradientUnits="userSpaceOnUse">
<stop stop-color="#DCF2FD"/>
<stop offset="0.06" stop-color="#C7EAFA"/>
<stop offset="0.25" stop-color="#8BD4F0"/>
<stop offset="0.43" stop-color="#5AC2E8"/>
<stop offset="0.6" stop-color="#33B4E1"/>
<stop offset="0.76" stop-color="#17A9DD"/>
<stop offset="0.9" stop-color="#06A3DA"/>
<stop offset="1" stop-color="#00A1D9"/>
</linearGradient>
<linearGradient id="paint9_linear_12_2" x1="-850.477" y1="1089.9" x2="3752.18" y2="4993.75" gradientUnits="userSpaceOnUse">
<stop stop-color="#DCF2FD"/>
<stop offset="0.06" stop-color="#C7E9F9"/>
<stop offset="0.25" stop-color="#8BD0ED"/>
<stop offset="0.43" stop-color="#5ABBE2"/>
<stop offset="0.6" stop-color="#33AADA"/>
<stop offset="0.76" stop-color="#179FD5"/>
<stop offset="0.9" stop-color="#0698D1"/>
<stop offset="1" stop-color="#0095D0"/>
</linearGradient>
<linearGradient id="paint10_linear_12_2" x1="610.409" y1="-569.113" x2="5214.01" y2="3335.85" gradientUnits="userSpaceOnUse">
<stop stop-color="#DCF2FD"/>
<stop offset="0.06" stop-color="#C7E9F9"/>
<stop offset="0.25" stop-color="#8BD0ED"/>
<stop offset="0.43" stop-color="#5ABBE2"/>
<stop offset="0.6" stop-color="#33AADA"/>
<stop offset="0.76" stop-color="#179FD5"/>
<stop offset="0.9" stop-color="#0698D1"/>
<stop offset="1" stop-color="#0095D0"/>
</linearGradient>
<linearGradient id="paint11_linear_12_2" x1="-50.6774" y1="137.647" x2="4609.57" y2="4090.5" gradientUnits="userSpaceOnUse">
<stop stop-color="#DCF2FD"/>
<stop offset="0.06" stop-color="#C7E9F9"/>
<stop offset="0.25" stop-color="#8BD0ED"/>
<stop offset="0.43" stop-color="#5ABBE2"/>
<stop offset="0.6" stop-color="#33AADA"/>
<stop offset="0.76" stop-color="#179FD5"/>
<stop offset="0.9" stop-color="#0698D1"/>
<stop offset="1" stop-color="#0095D0"/>
</linearGradient>
<linearGradient id="paint12_linear_12_2" x1="994.267" y1="-1049.87" x2="5653.43" y2="2900.83" gradientUnits="userSpaceOnUse">
<stop stop-color="#DCF2FD"/>
<stop offset="0.06" stop-color="#C7E9F9"/>
<stop offset="0.25" stop-color="#8BD0ED"/>
<stop offset="0.43" stop-color="#5ABBE2"/>
<stop offset="0.6" stop-color="#33AADA"/>
<stop offset="0.76" stop-color="#179FD5"/>
<stop offset="0.9" stop-color="#0698D1"/>
<stop offset="1" stop-color="#0095D0"/>
</linearGradient>
<linearGradient id="paint13_linear_12_2" x1="-1238.4" y1="1577.15" x2="3422.95" y2="5527.73" gradientUnits="userSpaceOnUse">
<stop stop-color="#DCF2FD"/>
<stop offset="0.06" stop-color="#C7E9F9"/>
<stop offset="0.25" stop-color="#8BD0ED"/>
<stop offset="0.43" stop-color="#5ABBE2"/>
<stop offset="0.6" stop-color="#33AADA"/>
<stop offset="0.76" stop-color="#179FD5"/>
<stop offset="0.9" stop-color="#0698D1"/>
<stop offset="1" stop-color="#0095D0"/>
</linearGradient>
<linearGradient id="paint14_linear_12_2" x1="-193.274" y1="388.78" x2="4466.31" y2="4338.4" gradientUnits="userSpaceOnUse">
<stop stop-color="#DCF2FD"/>
<stop offset="0.06" stop-color="#C7E9F9"/>
<stop offset="0.25" stop-color="#8BD0ED"/>
<stop offset="0.43" stop-color="#5ABBE2"/>
<stop offset="0.6" stop-color="#33AADA"/>
<stop offset="0.76" stop-color="#179FD5"/>
<stop offset="0.9" stop-color="#0698D1"/>
<stop offset="1" stop-color="#0095D0"/>
</linearGradient>
</defs>
</svg>
